<svg width="27" height="44" viewBox="0 0 27 44" fill="none" xmlns="http://www.w3.org/2000/svg">
<path d="M25.3042 41.5418C24.2108 42.6439 22.7587 43.25 21.214 43.25C19.6694 43.25 18.2154 42.6435 17.1234 41.5418L1.69531 25.9963C0.601958 24.8966 1.00236e-06 23.4314 9.34331e-07 21.875C8.66299e-07 20.3186 0.601945 18.8535 1.69531 17.7532L17.1234 2.20772C18.2148 1.10605 19.6671 0.499999 21.214 0.499999C22.7585 0.499999 24.2127 1.10653 25.3047 2.20821C26.398 3.30796 27 4.77312 27 6.33001C27 7.88629 26.3981 9.35148 25.3047 10.4518L13.9665 21.8755L25.3024 33.2997C26.3957 34.3994 26.9977 35.8646 26.9977 37.4215C26.9996 38.9777 26.3981 40.4429 25.3043 41.5428L25.3042 41.5418Z" fill="url(#paint0_linear_577_9109)"/>
<defs>
<linearGradient id="paint0_linear_577_9109" x1="13.5" y1="43.25" x2="13.5" y2="0.499999" gradientUnits="userSpaceOnUse">
<stop stop-color="#40CEEC"/>
<stop offset="1" stop-color="#50919E"/>
</linearGradient>
</defs>
</svg>
