<svg width="28" height="44" viewBox="0 0 28 44" fill="none" xmlns="http://www.w3.org/2000/svg">
<path d="M2.4458 41.5418C3.53915 42.6439 4.99134 43.25 6.53598 43.25C8.08062 43.25 9.53462 42.6435 10.6266 41.5418L26.0547 25.9963C27.148 24.8966 27.75 23.4314 27.75 21.875C27.75 20.3186 27.1481 18.8535 26.0547 17.7532L10.6266 2.20772C9.53521 1.10605 8.08295 0.499999 6.53598 0.499999C4.99146 0.499999 3.53734 1.10653 2.44531 2.20821C1.35196 3.30796 0.750002 4.77312 0.750002 6.33001C0.750002 7.88629 1.35195 9.35148 2.44531 10.4518L13.7835 21.8755L2.44764 33.2997C1.35429 34.3994 0.752331 35.8646 0.752331 37.4215C0.750416 38.9777 1.35188 40.4429 2.44568 41.5428L2.4458 41.5418Z" fill="url(#paint0_linear_577_9091)"/>
<defs>
<linearGradient id="paint0_linear_577_9091" x1="14.25" y1="0.499999" x2="14.25" y2="43.25" gradientUnits="userSpaceOnUse">
<stop stop-color="#247586"/>
<stop offset="1" stop-color="#50919E"/>
</linearGradient>
</defs>
</svg>
