<svg width="13" height="13" viewBox="0 0 13 13" fill="none" xmlns="http://www.w3.org/2000/svg">
<g clip-path="url(#clip0_566_3327)">
<path d="M6.0971 5.66606H0.574219V1.66397C0.574219 1.26376 0.720962 0.916915 1.01445 0.623428C1.30793 0.329943 1.66812 0.183199 2.09501 0.183199H6.0971V5.66606ZM1.57474 4.66553H5.09657V1.18372H2.09501C1.93493 1.18372 1.80819 1.23041 1.71481 1.32379C1.62143 1.41718 1.57474 1.53057 1.57474 1.66397V4.66553ZM12.5805 5.66606H7.09762V0.183199H11.0997C11.4999 0.183199 11.8468 0.329943 12.1402 0.623428C12.4337 0.916915 12.5805 1.2771 12.5805 1.70399V5.66606ZM8.09814 4.66553H11.58V1.66397C11.58 1.53057 11.5333 1.41718 11.4399 1.32379C11.3465 1.23041 11.2331 1.18372 11.0997 1.18372H8.09814V4.66553ZM6.0971 12.1895H2.09501C1.66812 12.1895 1.30793 12.0427 1.01445 11.7492C0.720962 11.4557 0.574219 11.1089 0.574219 10.7087V6.66658H6.0971V12.1895ZM1.57474 7.6671V10.6687C1.57474 10.8287 1.62143 10.9555 1.71481 11.0489C1.80819 11.1422 1.93493 11.1889 2.09501 11.1889H5.09657V7.6671H1.57474ZM11.0997 12.1895H7.09762V6.66658H12.5805V10.6687C12.5805 11.0956 12.4337 11.4557 12.1402 11.7492C11.8468 12.0427 11.4866 12.1895 11.0597 12.1895H11.0997ZM8.09814 11.1889H11.0997C11.2331 11.1889 11.3465 11.1422 11.4399 11.0489C11.5333 10.9555 11.58 10.8287 11.58 10.6687V7.6671H8.09814V11.1889Z" fill="white"/>
</g>
<defs>
<clipPath id="clip0_566_3327">
<rect width="12.0063" height="12.0063" fill="white" transform="matrix(1 0 0 -1 0.574219 12.1895)"/>
</clipPath>
</defs>
</svg>
