<svg width="16" height="17" viewBox="0 0 16 17" fill="none" xmlns="http://www.w3.org/2000/svg">
<g clip-path="url(#clip0_566_3336)">
<g clip-path="url(#clip1_566_3336)">
<g clip-path="url(#clip2_566_3336)">
<mask id="mask0_566_3336" style="mask-type:luminance" maskUnits="userSpaceOnUse" x="0" y="0" width="16" height="16">
<path d="M15.875 0.944336H0.867188V15.9522H15.875V0.944336Z" fill="white"/>
</mask>
<g mask="url(#mask0_566_3336)">
<path d="M11.1223 3.49084C10.3719 2.85489 9.59902 2.19517 8.81674 1.41539L8.37085 0.972656L7.93313 1.41601C6.52489 2.828 5.85954 4.996 5.57064 6.29668C5.34951 5.95394 5.18542 5.57761 5.08476 5.18235L4.82025 4.16119L4.0511 4.88407C2.70353 6.1491 1.80493 7.40413 1.80493 9.41391C1.79235 10.8636 2.26449 12.2759 3.14639 13.4265C4.02828 14.5771 5.26934 15.4002 6.67247 15.7648C7.09523 15.8676 7.52673 15.9304 7.96127 15.9524C8.09713 15.9696 8.23391 15.9785 8.37085 15.9792C8.44274 15.9792 8.51283 15.973 8.58284 15.9686C10.2863 15.9173 11.9028 15.2043 13.0891 13.9807C14.2754 12.7571 14.9382 11.1194 14.9368 9.41519C14.9368 6.73003 13.169 5.22925 11.1223 3.49084ZM8.49594 14.718C8.43336 14.718 8.37085 14.7242 8.30456 14.7236C7.74173 14.7063 7.20761 14.471 6.81507 14.0673C6.42255 13.6636 6.20233 13.123 6.20097 12.5599C6.20097 11.7671 6.62619 11.3718 7.58857 10.5526C7.83119 10.3463 8.09508 10.1218 8.37273 9.86482C8.61601 10.0855 8.85238 10.2856 9.07059 10.4714C10.0373 11.2918 10.542 11.7577 10.542 12.558C10.5409 13.1112 10.3285 13.643 9.9481 14.0445C9.56765 14.446 9.04816 14.687 8.49594 14.718ZM11.6351 13.6105L11.6225 13.6193C11.7348 13.2773 11.7922 12.9198 11.7926 12.5599C11.7926 11.1436 10.8634 10.3545 9.88041 9.51964C9.53208 9.22444 9.1725 8.91933 8.81358 8.56034L8.37085 8.11829L7.92875 8.56034C7.52353 8.96495 7.12708 9.30263 6.77752 9.60031C5.79701 10.4344 4.94969 11.1555 4.94969 12.5599C4.95103 12.9353 5.01441 13.3078 5.13729 13.6624C4.48636 13.1626 3.95978 12.519 3.59867 11.7821C3.23756 11.0451 3.05169 10.2346 3.05559 9.41391C3.0453 8.31661 3.47001 7.25988 4.23682 6.4749C4.36891 6.74286 4.52549 6.99804 4.70457 7.23717C4.83536 7.41366 5.01494 7.54803 5.22117 7.62369C5.4274 7.69936 5.65126 7.71303 5.86517 7.66302C6.08278 7.61457 6.28182 7.50447 6.43851 7.3459C6.59521 7.18732 6.70291 6.98697 6.74876 6.7688C7.01059 5.33158 7.57689 3.96701 8.40965 2.76672C9.06932 3.39204 9.72283 3.94545 10.3125 4.44634C12.271 6.10971 13.6892 7.31158 13.6892 9.41766C13.6907 10.2273 13.5063 11.0264 13.15 11.7533C12.7937 12.4803 12.2758 13.1157 11.6351 13.6105Z" fill="#40CEEC"/>
</g>
</g>
</g>
</g>
<defs>
<clipPath id="clip0_566_3336">
<rect width="15.0078" height="15.7582" fill="white" transform="translate(0.867188 0.556641)"/>
</clipPath>
<clipPath id="clip1_566_3336">
<rect width="15.0078" height="15.7582" fill="white" transform="translate(0.867188 0.556641)"/>
</clipPath>
<clipPath id="clip2_566_3336">
<rect width="15.0078" height="15.7582" fill="white" transform="translate(0.867188 0.556641)"/>
</clipPath>
</defs>
</svg>
