<svg width="29" height="30" viewBox="0 0 29 30" fill="none" xmlns="http://www.w3.org/2000/svg">
<g clip-path="url(#clip0_569_8339)">
<path d="M28.9866 20.9377C28.9826 20.9172 28.9773 20.8976 28.9706 20.8776C28.9639 20.8593 28.9581 20.8424 28.9497 20.825C28.9412 20.809 28.9314 20.7943 28.9216 20.7787C28.9145 20.7685 28.9132 20.7565 28.9056 20.7467C28.8998 20.7391 28.8913 20.7364 28.8856 20.7293C28.8722 20.7142 28.8584 20.7013 28.8433 20.6879C28.837 20.6821 28.8339 20.675 28.8277 20.6696L25.3863 17.9929C25.417 17.6624 25.4371 17.3289 25.4371 16.9976C25.4371 12.8054 22.9981 9.0305 19.2045 7.28799V4.52706C19.2045 4.5177 19.1996 4.51013 19.1991 4.50078C19.1978 4.48119 19.1951 4.46293 19.1915 4.44378C19.1875 4.4233 19.1822 4.40415 19.1755 4.38411C19.1693 4.36585 19.1635 4.34893 19.1546 4.33201C19.1466 4.31553 19.1363 4.30084 19.1265 4.2857C19.1194 4.27545 19.1181 4.26343 19.1105 4.25363C19.1047 4.24606 19.0963 4.24339 19.09 4.23627C19.0771 4.22113 19.0633 4.20821 19.0482 4.19485C19.0419 4.18906 19.0388 4.18194 19.0326 4.17659L15.023 1.05852C15.0136 1.05139 15.0025 1.04961 14.9931 1.04382C14.9673 1.02645 14.9406 1.01443 14.9121 1.00285C14.8854 0.992609 14.8609 0.982367 14.8333 0.977023C14.8057 0.972125 14.7781 0.97168 14.7496 0.97168C14.7215 0.97168 14.6939 0.972125 14.6658 0.977469C14.6382 0.982812 14.6137 0.993055 14.587 1.00374C14.559 1.01488 14.5322 1.0269 14.5064 1.04382C14.4966 1.0505 14.485 1.05184 14.4761 1.05896L10.4665 4.17704C10.459 4.18283 10.4563 4.19129 10.4492 4.19752C10.4354 4.20955 10.4225 4.22202 10.4104 4.23538C10.4038 4.24295 10.3948 4.24606 10.3886 4.25408C10.3806 4.26388 10.3793 4.2759 10.3726 4.28614C10.3623 4.30217 10.3516 4.31731 10.3436 4.33423C10.3356 4.35027 10.3303 4.3663 10.324 4.38366C10.3169 4.4037 10.3116 4.4233 10.3076 4.44423C10.304 4.46337 10.3013 4.48208 10.3 4.50167C10.2995 4.51102 10.2946 4.51859 10.2946 4.52839V7.28844C6.50103 9.03006 4.06205 12.805 4.06205 16.9976C4.06205 17.3307 4.08209 17.6638 4.11238 17.9929L0.671891 20.6687C0.66432 20.6745 0.661648 20.683 0.654523 20.6892C0.640719 20.7013 0.627805 20.7137 0.615336 20.7275C0.609102 20.7346 0.600195 20.7378 0.593961 20.7458C0.586391 20.7556 0.584609 20.7676 0.57793 20.7774C0.567688 20.7939 0.557 20.8086 0.548984 20.8259C0.540969 20.8424 0.535625 20.8584 0.529391 20.8758C0.522266 20.8959 0.517367 20.9146 0.513359 20.935C0.509352 20.9546 0.50668 20.9733 0.505344 20.9934C0.504898 21.0027 0.5 21.0103 0.5 21.0201V25.4714C0.5 25.4808 0.504898 25.4888 0.505344 25.4982C0.50757 25.5293 0.515141 25.5583 0.523602 25.5886C0.531172 25.6153 0.536961 25.6411 0.548984 25.6656C0.561008 25.6901 0.577484 25.7106 0.594406 25.7324C0.613109 25.7578 0.631367 25.7818 0.654969 25.8023C0.662094 25.8085 0.664766 25.817 0.672336 25.8228L4.68193 28.9409C4.6993 28.9547 4.71978 28.9609 4.73893 28.9711C4.75051 28.9783 4.7603 28.9876 4.77233 28.993C4.78034 28.997 4.78836 28.9996 4.79682 29.0023C4.84848 29.0224 4.90147 29.0344 4.95491 29.0344H4.95535C4.95535 29.0344 4.95535 29.0344 4.9558 29.0344C5.00923 29.0344 5.06223 29.0224 5.11388 29.0023C5.12234 28.9992 5.13036 28.9965 5.13838 28.993C5.1504 28.9876 5.1602 28.9783 5.17177 28.9711C5.19092 28.9609 5.21141 28.9547 5.22877 28.9409L9.00681 26.0027C10.7235 27.0999 12.6989 27.6846 14.7496 27.6846C16.7998 27.6846 18.7761 27.0999 20.4923 26.0023L24.2708 28.9409C24.2882 28.9547 24.3086 28.9609 24.3278 28.9711C24.3394 28.9783 24.3492 28.9876 24.3612 28.993C24.3692 28.997 24.3772 28.9996 24.3857 29.0023C24.4373 29.0224 24.4903 29.0344 24.5438 29.0344H24.5442C24.5442 29.0344 24.5442 29.0344 24.5446 29.0344C24.5981 29.0344 24.6511 29.0224 24.7027 29.0023C24.7112 28.9992 24.7192 28.9965 24.7272 28.993C24.7393 28.9876 24.749 28.9783 24.7606 28.9711C24.7798 28.9609 24.8003 28.9547 24.8176 28.9409L28.8272 25.8228C28.8348 25.817 28.8375 25.8085 28.8446 25.8023C28.8682 25.7818 28.8864 25.7573 28.9051 25.7324C28.9216 25.7101 28.9385 25.6896 28.9506 25.6656C28.9626 25.6415 28.9684 25.6153 28.976 25.5886C28.9844 25.5583 28.992 25.5293 28.9942 25.4982C28.9947 25.4888 28.9996 25.4812 28.9996 25.4714V21.0205C28.9996 21.0112 28.9947 21.0032 28.9942 20.9934C28.9924 20.9742 28.9902 20.9564 28.9866 20.9377ZM24.5442 18.4662L27.8279 21.0205L24.5442 23.574L21.2605 21.0196L24.5442 18.4662ZM20.9799 21.9303L24.0989 24.3564V27.6797L20.9799 25.2541V21.9303ZM24.9895 24.3564L28.1085 21.9308V25.2541L24.9895 27.6797V24.3564ZM14.7496 1.97408L18.0333 4.5275L14.7496 7.08137L11.4658 4.52795L14.7496 1.97408ZM11.1853 7.56988C11.1853 7.56943 11.1853 7.56854 11.1853 7.56809V5.43727L14.3042 7.86334V11.1871L11.1853 8.76109V7.56988ZM15.1949 7.86334L18.3138 5.43772V7.55785V7.58056V8.76198L15.1949 11.1871V7.86334ZM8.23864 21.021L4.95491 23.5744L1.67117 21.0201L4.95491 18.4667L8.23864 21.021ZM1.39062 21.9303L4.50959 24.3564V27.6797L1.39062 25.2541V21.9303ZM5.40022 24.3564L8.51919 21.9308V25.2541L5.40022 27.6797V24.3564ZM9.40981 25.2051V21.0205C9.40981 21.0112 9.40491 21.0032 9.40447 20.9934C9.40313 20.9742 9.40046 20.9564 9.3969 20.9377C9.39289 20.9172 9.38755 20.8976 9.38087 20.8776C9.37419 20.8593 9.3684 20.8424 9.35994 20.825C9.35148 20.809 9.34168 20.7943 9.33188 20.7787C9.32476 20.7685 9.32342 20.7565 9.31585 20.7467C9.31006 20.7391 9.3016 20.7364 9.29537 20.7293C9.28245 20.7142 9.26865 20.7013 9.25351 20.6879C9.24727 20.6821 9.24416 20.675 9.23792 20.6696L5.22833 17.5507C5.21898 17.5431 5.2074 17.5418 5.19805 17.5355C5.17266 17.5186 5.14684 17.5075 5.11878 17.4959C5.09162 17.4852 5.06623 17.475 5.03818 17.4692C5.01413 17.4647 4.99098 17.4634 4.96604 17.4629C4.95891 17.3084 4.95268 17.153 4.95268 16.9976C4.95268 13.2921 7.02873 9.93805 10.2946 8.27124V8.9784C10.2946 8.98775 10.2995 8.99577 10.3004 9.00556C10.3022 9.03629 10.3098 9.06479 10.3183 9.09463C10.3258 9.12179 10.3316 9.14806 10.3441 9.17255C10.3557 9.19705 10.3721 9.21753 10.3891 9.23935C10.4078 9.26474 10.426 9.28878 10.4496 9.30927C10.4567 9.3155 10.4594 9.32396 10.467 9.32975L14.4766 12.4487C14.4944 12.4625 14.5144 12.4688 14.5336 12.479C14.5452 12.4861 14.555 12.4955 14.567 12.5008C14.575 12.5048 14.583 12.5075 14.5915 12.5102C14.6431 12.5302 14.6961 12.5422 14.7496 12.5422H14.75H14.7504C14.8039 12.5422 14.8569 12.5302 14.9085 12.5102C14.917 12.5071 14.925 12.5044 14.933 12.5008C14.945 12.4955 14.9548 12.4861 14.9664 12.479C14.9856 12.4688 15.0056 12.4625 15.0234 12.4487L19.033 9.33064C19.0406 9.32485 19.0433 9.31639 19.0504 9.31016C19.074 9.28967 19.0922 9.26518 19.1109 9.24024C19.1274 9.21798 19.1439 9.19749 19.1564 9.17345C19.1679 9.14895 19.1742 9.12313 19.1818 9.09641C19.1902 9.06613 19.1978 9.03718 19.2 9.00601C19.2005 8.99666 19.2054 8.98909 19.2054 8.97929V8.27124C22.4708 9.93894 24.5464 13.2921 24.5464 16.9976C24.5464 17.1526 24.5402 17.308 24.5331 17.4634C24.5081 17.4638 24.4854 17.4652 24.4614 17.4696C24.4333 17.4754 24.4075 17.4852 24.3803 17.4963C24.3527 17.5075 24.3269 17.519 24.302 17.5355C24.2922 17.5422 24.2801 17.544 24.2708 17.5511L20.2612 20.6692C20.2536 20.675 20.2509 20.6834 20.2438 20.6897C20.23 20.7017 20.2171 20.7142 20.2046 20.728C20.1984 20.7351 20.1895 20.7382 20.1833 20.7462C20.1757 20.756 20.1739 20.768 20.1672 20.7778C20.157 20.7943 20.1463 20.809 20.1383 20.8264C20.1303 20.8429 20.1249 20.8589 20.1187 20.8763C20.1116 20.8963 20.1067 20.915 20.1027 20.9355C20.0986 20.9551 20.096 20.9738 20.0946 20.9938C20.0942 21.0032 20.0893 21.0107 20.0893 21.0205V25.2047C18.4995 26.2423 16.6595 26.7945 14.7496 26.7945C12.8396 26.7945 11.0005 26.2423 9.40981 25.2051Z" fill="#924705"/>
</g>
<defs>
<clipPath id="clip0_569_8339">
<rect width="28.5" height="28.5" fill="white" transform="translate(0.5 0.75)"/>
</clipPath>
</defs>
</svg>
