<svg width="32" height="31" viewBox="0 0 32 31" fill="none" xmlns="http://www.w3.org/2000/svg">
<path d="M15.875 0C7.39671 0 0.5 6.89737 0.5 15.375C0.5 23.8526 7.39671 30.75 15.875 30.75C24.3533 30.75 31.25 23.8526 31.25 15.375C31.25 6.89737 24.3533 0 15.875 0ZM15.875 29.4688C8.10366 29.4688 1.78123 23.1463 1.78123 15.375C1.78123 7.60366 8.10366 1.28123 15.875 1.28123C23.6463 1.28123 29.9688 7.60366 29.9688 15.375C29.9688 23.1463 23.6463 29.4688 15.875 29.4688Z" fill="#FF4E4E"/>
<path d="M12.6719 6.40625H8.82812C7.76833 6.40625 6.90625 7.26833 6.90625 8.32812V12.1719C6.90625 13.2317 7.76833 14.0937 8.82812 14.0937H12.6719C13.7317 14.0937 14.5937 13.2317 14.5937 12.1719V8.32812C14.5937 7.26833 13.7317 6.40625 12.6719 6.40625ZM13.3125 12.1719C13.3125 12.5253 13.0247 12.8125 12.6718 12.8125H8.82806C8.47522 12.8125 8.18742 12.5254 8.18742 12.1719V8.32812C8.18742 7.97468 8.47522 7.68748 8.82806 7.68748H12.6718C13.0247 7.68748 13.3125 7.97462 13.3125 8.32812V12.1719Z" fill="#FF4E4E"/>
<path d="M22.9219 6.40625H19.0781C18.0183 6.40625 17.1562 7.26833 17.1562 8.32812V12.1719C17.1562 13.2317 18.0183 14.0937 19.0781 14.0937H22.9219C23.9817 14.0937 24.8438 13.2317 24.8438 12.1719V8.32812C24.8438 7.26833 23.9817 6.40625 22.9219 6.40625ZM23.5625 12.1719C23.5625 12.5253 23.2747 12.8125 22.9219 12.8125H19.0781C18.7253 12.8125 18.4375 12.5254 18.4375 12.1719V8.32812C18.4375 7.97468 18.7253 7.68748 19.0781 7.68748H22.9219C23.2747 7.68748 23.5625 7.97462 23.5625 8.32812V12.1719Z" fill="#FF4E4E"/>
<path d="M12.6719 16.6562H8.82812C7.76833 16.6562 6.90625 17.5183 6.90625 18.5781V22.4219C6.90625 23.4817 7.76833 24.3438 8.82812 24.3438H12.6719C13.7317 24.3438 14.5937 23.4817 14.5937 22.4219V18.5781C14.5937 17.5184 13.7317 16.6562 12.6719 16.6562ZM13.3125 22.4219C13.3125 22.7753 13.0247 23.0625 12.6718 23.0625H8.82806C8.47522 23.0625 8.18742 22.7754 8.18742 22.4219V18.5781C8.18742 18.2247 8.47522 17.9375 8.82806 17.9375H12.6718C13.0247 17.9375 13.3125 18.2246 13.3125 18.5781V22.4219Z" fill="#FF4E4E"/>
<path d="M22.9219 16.6562H19.0781C18.0183 16.6562 17.1562 17.5183 17.1562 18.5781V22.4219C17.1562 23.4817 18.0183 24.3438 19.0781 24.3438H22.9219C23.9817 24.3438 24.8438 23.4817 24.8438 22.4219V18.5781C24.8438 17.5184 23.9817 16.6562 22.9219 16.6562ZM23.5625 22.4219C23.5625 22.7753 23.2747 23.0625 22.9219 23.0625H19.0781C18.7253 23.0625 18.4375 22.7754 18.4375 22.4219V18.5781C18.4375 18.2247 18.7253 17.9375 19.0781 17.9375H22.9219C23.2747 17.9375 23.5625 18.2246 23.5625 18.5781V22.4219Z" fill="#FF4E4E"/>
</svg>
