<svg width="26" height="28" viewBox="0 0 26 28" fill="none" xmlns="http://www.w3.org/2000/svg">
<path d="M6.37407 20.9247L9.32482 26.0359C9.96157 27.14 11.3939 27.5488 12.5266 26.894C13.6475 26.2462 14.0327 24.8141 13.3843 23.6924L11.6265 20.6473L13.1487 19.7684C13.4289 19.6064 13.525 19.2482 13.3632 18.968L12.6013 17.6483C12.6921 17.6306 13.2895 17.5135 23.8243 15.4469C25.1266 15.3762 25.9069 13.9518 25.249 12.8131L23.3017 9.44034L24.5461 7.5555C24.6684 7.3701 24.6757 7.13184 24.5647 6.93958L23.3928 4.90985C23.2818 4.71759 23.071 4.60498 22.8501 4.61803L20.5959 4.7533L18.4341 1.00879C18.121 0.466339 17.56 0.137894 16.9338 0.130112C16.9262 0.129883 16.9189 0.129883 16.9113 0.129883C16.3062 0.129883 15.7569 0.431091 15.4314 0.940353L7.77712 10.6912L2.801 13.5641C0.843832 14.6936 0.165884 17.2045 1.29976 19.1669C2.33568 20.9613 4.51967 21.6672 6.37407 20.9247ZM12.3696 24.2785C12.6933 24.8384 12.5017 25.5548 11.9403 25.8791C11.377 26.2048 10.6597 26.0047 10.3397 25.4502L7.40999 20.3752L9.43972 19.2033C12.8304 25.0769 12.3152 24.1845 12.3696 24.2785ZM11.0405 19.6322L10.4546 18.6174L11.4694 18.0314L12.0554 19.0463L11.0405 19.6322ZM22.559 5.80936L23.3688 7.21195L22.6467 8.30554L21.2509 5.88786L22.559 5.80936ZM16.4115 1.58282C16.5687 1.32556 16.8182 1.29901 16.9193 1.30176C17.0194 1.3029 17.2686 1.33403 17.419 1.5945L24.2342 13.3991C24.4562 13.7834 24.1863 14.2665 23.7412 14.2775C23.6613 14.2794 23.6244 14.2938 23.4198 14.332L16.2107 1.84535C16.362 1.6508 16.3815 1.63203 16.4115 1.58282ZM15.4309 2.8387L22.2042 14.5705L11.9819 16.5755L8.87369 11.192L15.4309 2.8387ZM2.31463 18.581C2.05736 18.1358 1.92141 17.6304 1.92141 17.1191C1.92141 16.074 2.48308 15.1008 3.38694 14.579L7.95382 11.9422L10.8835 17.0166L6.31663 19.6535C4.91747 20.461 3.12235 19.9799 2.31463 18.581Z" fill="#008646"/>
</svg>
