<svg width="32" height="31" viewBox="0 0 32 31" fill="none" xmlns="http://www.w3.org/2000/svg">
<g clip-path="url(#clip0_569_8346)">
<path d="M16.6349 14.8656C16.4 14.6307 16.0199 14.6307 15.785 14.8656C15.5508 15.0998 15.5508 15.48 15.785 15.7148C16.0199 15.949 16.4 15.949 16.6349 15.7148C16.8691 15.48 16.8691 15.0998 16.6349 14.8656Z" fill="#0073C6"/>
<path d="M24.2791 7.22095C23.1055 6.04747 21.2058 6.04741 20.0322 7.22095C18.8617 8.39143 18.8616 10.2965 20.0323 11.4679C21.2032 12.6381 23.1083 12.6386 24.2791 11.4678C25.4525 10.2944 25.4527 8.39456 24.2791 7.22095ZM23.4297 10.6184C22.7275 11.3207 21.5843 11.3207 20.8817 10.6185C20.1793 9.91572 20.1792 8.77257 20.8816 8.0703C21.5856 7.36624 22.7255 7.36612 23.4297 8.0703C24.1338 8.77431 24.1339 9.91428 23.4297 10.6184Z" fill="#0073C6"/>
<path d="M31.0749 0.425917C30.9569 0.308022 30.7959 0.24412 30.6286 0.250426C30.4928 0.255291 27.2596 0.385258 23.4161 1.74372C20.3363 2.83114 17.7693 4.38804 15.7862 6.37117C15.3418 6.81554 14.9094 7.28676 14.4957 7.77629C12.5349 6.62209 10.9636 6.984 9.9703 7.51558C7.68322 8.73957 6.26758 12.063 6.26758 14.4401C6.26776 14.683 6.41412 14.902 6.6385 14.9949C6.71279 15.0257 6.79087 15.0407 6.86822 15.0407C7.02456 15.0407 7.17813 14.9796 7.29302 14.8648C8.49917 13.6586 9.98688 13.734 10.4729 13.7979L10.6832 14.0083C10.2693 14.9932 9.93583 15.9727 9.69127 16.9252C9.60299 17.27 9.63278 17.6348 9.764 17.9685C9.18576 18.2349 8.62788 18.6262 8.14212 19.112C6.59616 20.658 6.28223 24.4257 6.26962 24.5853C6.25581 24.7605 6.31935 24.933 6.44361 25.0573C6.5567 25.1703 6.70967 25.2332 6.86822 25.2332C6.88396 25.2332 6.89975 25.2326 6.91555 25.2313C7.07518 25.2188 10.843 24.9049 12.389 23.3589C12.8746 22.8733 13.2658 22.3155 13.5323 21.7374C13.8855 21.8763 14.2491 21.8934 14.5761 21.8096C15.5282 21.5651 16.5076 21.2318 17.4926 20.8178L17.703 21.0281C17.7668 21.5142 17.8422 23.0019 16.6361 24.2079C16.4644 24.3797 16.413 24.638 16.506 24.8624C16.5989 25.0868 16.8179 25.2331 17.0608 25.2331C19.4379 25.2331 22.7613 23.8175 23.9853 21.5304C24.5168 20.5372 24.8787 18.966 23.7245 17.0051C24.2138 16.5916 24.6851 16.1591 25.1297 15.7146C27.1128 13.7315 28.6696 11.1644 29.7571 8.08482C31.1156 4.24119 31.2455 1.00788 31.2503 0.872152C31.2564 0.705489 31.1928 0.543872 31.0749 0.425917ZM7.61037 13.1483C7.98345 11.3427 9.06708 9.36148 10.5373 8.57459C11.5198 8.04884 12.5937 8.10037 13.7356 8.7254C12.7628 10.0048 11.9171 11.3831 11.2122 12.8386C11.2032 12.8331 11.0951 12.6972 10.8943 12.6519C10.8117 12.6332 9.22264 12.2914 7.61037 13.1483ZM11.5396 22.5095C10.7138 23.3353 8.77664 23.7708 7.55223 23.9487C7.73012 22.7242 8.16573 20.7871 8.99147 19.9613C9.45392 19.4989 9.99012 19.1482 10.5291 18.9508L12.5502 20.9719C12.3527 21.5108 12.0021 22.047 11.5396 22.5095ZM14.2777 20.646C14.1039 20.6905 13.9026 20.6252 13.7529 20.4758C12.9759 19.6988 12.672 19.3948 12.5766 19.2995C12.4017 19.1246 11.9728 18.6958 11.0255 17.7484C10.8757 17.5983 10.8104 17.3971 10.8548 17.2236C11.0472 16.4744 11.2987 15.7058 11.6047 14.9297L16.5712 19.8963C15.7951 20.2023 15.0266 20.4538 14.2777 20.646ZM22.9264 20.9636C22.1395 22.4338 20.1583 23.5175 18.3528 23.8905C18.9284 22.8073 19.0554 21.4282 18.845 20.5921C18.7962 20.3978 18.6695 20.3002 18.6624 20.2887C20.1178 19.5838 21.4961 18.7381 22.7756 17.7653C23.4006 18.9073 23.4521 19.9813 22.9264 20.9636ZM24.2804 14.8652C23.7393 15.4064 23.1565 15.9292 22.5484 16.4191C21.0864 17.5962 19.4773 18.5933 17.7606 19.387L12.1139 13.7405C12.9076 12.0236 13.9047 10.4145 15.0818 8.95278C15.5721 8.34421 16.0948 7.7614 16.6358 7.22051C18.415 5.44122 20.7113 4.02516 23.4627 3.00585L28.4951 8.03827C27.4759 10.7896 26.0599 13.0859 24.2804 14.8652ZM28.9272 6.77158L24.7294 2.57373C27.0165 1.86336 29.0061 1.59736 29.9993 1.50174C29.9036 2.49505 29.6375 4.48473 28.9272 6.77158Z" fill="#0073C6"/>
<path d="M14.9366 25.0567C14.7019 24.8222 14.3216 24.8223 14.0872 25.0568L12.3887 26.7559C12.1542 26.9905 12.1543 27.3708 12.3888 27.6052C12.6235 27.8397 13.0038 27.8397 13.2382 27.6051L14.9367 25.906C15.1712 25.6715 15.1711 25.2912 14.9366 25.0567Z" fill="#0073C6"/>
<path d="M6.44314 16.5637C6.20867 16.3291 5.82844 16.3291 5.59379 16.5635L3.89474 18.262C3.66015 18.4965 3.66009 18.8767 3.89456 19.1113C4.12896 19.3458 4.5092 19.346 4.7439 19.1115L6.44296 17.413C6.67755 17.1785 6.67761 16.7982 6.44314 16.5637Z" fill="#0073C6"/>
<path d="M10.6894 25.9073C10.455 25.6728 10.0746 25.6728 9.84001 25.9073L5.77165 29.975C5.53706 30.2096 5.53706 30.5899 5.77159 30.8244C6.006 31.0589 6.38635 31.059 6.62094 30.8245L10.6893 26.7567C10.9239 26.5222 10.9239 26.1419 10.6894 25.9073Z" fill="#0073C6"/>
<path d="M5.88467 25.9073C5.6502 25.6728 5.26985 25.6728 5.03533 25.9073L0.966964 29.975C0.732376 30.2096 0.732376 30.5899 0.966904 30.8244C1.20131 31.0589 1.58166 31.059 1.81625 30.8245L5.88461 26.7567C6.1192 26.5222 6.1192 26.1419 5.88467 25.9073Z" fill="#0073C6"/>
<path d="M5.593 20.8106C5.35853 20.5761 4.97818 20.5761 4.74365 20.8107L0.675889 24.879C0.44136 25.1136 0.44136 25.4938 0.675949 25.7284C0.910477 25.963 1.29077 25.963 1.5253 25.7284L5.59306 21.66C5.82758 21.4254 5.82758 21.0452 5.593 20.8106Z" fill="#0073C6"/>
<path d="M19.1831 12.3165C18.9485 12.082 18.5684 12.082 18.3337 12.3165L17.4845 13.1657C17.25 13.4003 17.25 13.7806 17.4845 14.0152C17.7191 14.2497 18.0993 14.2497 18.3339 14.0152L19.1831 13.1659C19.4177 12.9314 19.4177 12.5511 19.1831 12.3165Z" fill="#0073C6"/>
</g>
<defs>
<clipPath id="clip0_569_8346">
<rect width="30.75" height="30.75" fill="white" transform="translate(0.5 0.25)"/>
</clipPath>
</defs>
</svg>
