<svg width="46" height="51" viewBox="0 0 46 51" fill="none" xmlns="http://www.w3.org/2000/svg">
<g clip-path="url(#clip0_566_3061)">
<g clip-path="url(#clip1_566_3061)">
<g clip-path="url(#clip2_566_3061)">
<mask id="mask0_566_3061" style="mask-type:luminance" maskUnits="userSpaceOnUse" x="0" y="0" width="45" height="45">
<path d="M44.8301 0.0566406H0.328125V44.5586H44.8301V0.0566406Z" fill="white"/>
</mask>
<g mask="url(#mask0_566_3061)">
<path d="M28.8301 21.2817L31.0813 17.7442L34.2972 16.1362C34.726 16.029 35.6479 15.8789 35.9052 16.1362C36.1625 16.3935 39.8716 21.389 41.6939 23.8545L43.3019 26.7489C42.9803 27.3921 42.2728 28.7428 42.0155 29C41.7582 29.2573 39.3355 30.3937 38.1564 30.9296C37.5132 31.0368 36.1625 31.2512 35.9052 31.2512C35.6479 31.2512 32.582 27.1777 31.0813 25.1409L29.3929 22.2465L28.8301 21.2817Z" fill="white"/>
<path d="M35.9039 31.2508C35.6466 31.2508 32.5807 27.1773 31.08 25.1405L29.3916 22.2461H28.1856H24.9696C24.648 22.2461 23.0401 22.8893 22.3969 23.2109L20.4673 24.1757C19.8241 24.4973 19.1809 25.1405 18.8593 25.4621C18.5377 25.7837 17.8945 26.7484 17.8945 27.07C17.8945 27.3916 17.8945 28.0348 18.2161 28.3564C18.5377 28.678 19.1809 28.9996 19.5025 28.9996H21.4321C21.9466 28.9996 23.3617 28.3564 24.0049 28.0348C24.2192 28.142 24.7124 28.4207 24.9696 28.678C25.2269 28.9353 27.4352 30.5004 28.5072 31.2508L31.08 33.8236C31.5088 34.0379 32.4307 34.4024 32.688 34.1451C32.9452 33.8879 33.8671 33.1804 34.2959 32.8588L35.2607 32.2156L35.9039 31.2508Z" fill="white"/>
<path d="M10.1777 34.7899C10.1777 35.3044 11.0353 36.2906 11.4641 36.7195L13.7153 38.649L15.0017 39.6138L16.2881 40.9002C16.7169 41.1146 17.5744 41.6077 17.5744 41.865C17.5744 42.1223 18.8608 42.401 19.504 42.5082C19.8256 42.2938 20.5331 41.8007 20.7904 41.5434C21.112 41.2218 21.112 41.2218 21.112 40.5786C21.112 39.9354 21.112 39.2922 20.7904 38.649C20.4688 38.0058 20.4688 36.7195 20.1472 36.3979C19.8256 36.0763 18.5392 35.4331 18.5392 35.1115C18.5392 34.7899 17.5744 33.5035 17.2528 33.1819C16.9313 32.8603 16.2881 31.5739 15.9665 31.2523C15.6449 30.9307 14.6801 30.2875 14.0369 30.6091C13.3937 30.9307 11.4641 32.5387 11.1425 32.8603C10.8852 33.1176 10.3921 34.2539 10.1777 34.7899Z" fill="white"/>
<path d="M16.2889 3.27344C18.2185 5.95341 23.7499 11.1847 30.4391 10.6701L29.1527 14.5293L27.2232 16.1373L21.1128 18.0669L16.2889 16.4589L13.3945 11.3133L13.7161 7.13259L15.3241 4.23823L16.2889 3.27344Z" fill="white" fill-opacity="0.3"/>
<path d="M21.8628 11.6176C21.5233 11.6176 21.1069 11.5679 20.8219 11.2502C20.7228 11.1387 20.6359 11.0344 20.5517 10.9475C19.8727 10.2328 18.7029 11.2255 19.4117 12.1534L19.5827 12.3742C19.6942 12.5133 19.895 12.6745 20.1824 12.8582C20.4625 13.0367 20.7747 13.1658 21.1217 13.2427V14.4687C21.1217 14.8905 21.4661 15.2378 21.8876 15.2378C22.3114 15.2378 22.6707 14.8905 22.6707 14.4687V13.2353C23.2259 13.1064 23.7017 12.8358 24.0908 12.4265C24.4822 12.0169 24.6781 11.4736 24.6781 10.7962C24.6781 10.3347 24.589 9.9501 24.4104 9.63983C24.232 9.33212 24.0139 9.11633 23.7537 8.99464C23.491 8.87301 23.206 8.76631 22.8912 8.67459C22.579 8.5828 22.294 8.51823 22.0313 8.47861C21.7711 8.44124 21.553 8.3618 21.3745 8.24532C21.196 8.12607 21.1069 7.97228 21.1069 7.78119C21.1069 6.86812 22.4452 6.97971 23.0349 7.476C23.9048 8.20801 24.8787 6.86812 23.8701 6.1113L23.7536 6.007C23.6742 5.94511 23.5355 5.8681 23.3348 5.77127C23.1365 5.67462 22.9133 5.60257 22.6706 5.55042V4.80857V4.48602C22.6706 4.06412 22.326 3.7168 21.9023 3.7168C21.481 3.7168 21.1341 4.06404 21.1341 4.48602V5.53807C20.5689 5.64976 20.1005 5.93025 19.776 6.3445C19.4489 6.76643 19.2828 7.233 19.2828 7.75386C19.2828 8.27754 19.4043 8.70681 19.6471 9.0468C19.89 9.38654 20.1849 9.62484 20.5344 9.76383C20.8813 9.90283 21.2282 10.0145 21.5752 10.0963C21.9246 10.1808 22.2196 10.2725 22.4623 10.3792C22.7053 10.4834 22.8267 10.6299 22.8267 10.8209C22.8268 11.3519 22.5047 11.6176 21.8628 11.6176Z" fill="white"/>
<path d="M43.9127 25.1631L36.7708 16.0152C36.2898 15.3974 35.5604 15.043 34.7699 15.043C34.2119 15.043 33.6838 15.2201 33.2405 15.5564L28.5665 19.1193C28.0315 19.527 27.6897 20.1188 27.604 20.7855C27.5912 20.8848 27.5852 20.9839 27.5842 21.0825C25.8023 20.9475 23.9619 21.0832 22.1746 22.2449L22.0945 22.297L17.5731 21.6055C17.5824 21.449 17.5774 21.2906 17.5567 21.1316C17.4705 20.4665 17.1293 19.8761 16.5954 19.469L11.9202 15.9093C10.8249 15.0717 9.24116 15.2752 8.38944 16.3641L6.68691 18.5453C6.38895 18.9269 6.45691 19.4777 6.83851 19.7755C7.22012 20.0734 7.77095 20.0055 8.06881 19.6239L9.77083 17.4435C10.0285 17.114 10.5251 17.0492 10.8568 17.303L15.533 20.8634C15.6913 20.9841 15.7927 21.1594 15.8182 21.3571C15.8438 21.555 15.7904 21.7509 15.6684 21.9076L8.52516 31.057C8.26923 31.3856 7.77198 31.4498 7.4408 31.1987L2.76664 27.6354C2.60741 27.5141 2.50563 27.3382 2.48016 27.1403C2.45487 26.9433 2.50833 26.7487 2.63131 26.5916L3.84573 25.0359C4.1436 24.6543 4.07571 24.1035 3.69406 23.8057C3.31249 23.5076 2.76169 23.5757 2.46373 23.9573L1.25002 25.5121C0.836545 26.0407 0.65593 26.6983 0.741457 27.3637C0.827071 28.0302 1.16901 28.622 1.7039 29.0296L6.37956 32.5941C6.83459 32.9393 7.37236 33.1062 7.9066 33.1062C8.21559 33.1062 8.52303 33.0494 8.81292 32.9399L9.41804 33.7687C9.08911 34.3686 9.03785 35.0894 9.3022 35.785C9.68001 36.7795 10.5715 37.4538 11.5361 37.4859C11.566 37.6276 11.6074 37.7691 11.664 37.9094C12.0528 38.8727 12.9405 39.5283 13.8945 39.5715C13.8988 39.5965 13.9021 39.6216 13.9073 39.6467C14.0888 40.5287 14.7654 41.2819 15.631 41.5657C15.8515 41.638 16.0739 41.6751 16.294 41.6817C16.3783 42.0368 16.5546 42.3798 16.8256 42.6809C17.2479 43.1503 17.8644 43.4507 18.5408 43.4506C19.032 43.4506 19.5548 43.2912 20.0573 42.9239L21.0498 43.8517C21.5554 44.3235 22.1918 44.559 22.8222 44.559C23.4616 44.5589 24.0945 44.3166 24.5778 43.8328C24.866 43.5443 25.0894 43.2011 25.2338 42.8397C25.4801 42.9146 25.7207 42.95 25.9515 42.95C26.6016 42.95 27.1753 42.6755 27.5863 42.2521C27.9226 41.9058 28.1634 41.4447 28.2698 40.9531C28.3054 40.9549 28.3409 40.9564 28.3766 40.9567C28.3855 40.9569 28.394 40.9569 28.4028 40.9569C29.0942 40.9569 29.7575 40.689 30.226 40.2199C30.5542 39.8913 30.78 39.4869 30.8878 39.0454C31.055 39.078 31.223 39.095 31.3905 39.095C31.6015 39.095 31.8119 39.0688 32.0192 39.0157C32.8645 38.7991 33.5172 38.1385 33.7225 37.2917C33.9121 36.5103 33.7168 35.6871 33.1851 34.9389C34.5617 33.8314 35.1185 33.2858 35.7474 32.2657C36.1769 32.5817 36.6998 32.7558 37.2524 32.7558C37.812 32.7558 38.3412 32.5774 38.7812 32.2409L43.4582 28.6799C43.9917 28.2732 44.333 27.6829 44.4193 27.0177C44.5055 26.352 44.3259 25.6935 43.9127 25.1631ZM11.9946 35.5531C11.8604 35.6744 11.7301 35.7359 11.6075 35.7359C11.3558 35.7359 11.0631 35.4841 10.9409 35.1625C10.8299 34.8703 10.8816 34.6262 11.0951 34.4367L11.0979 34.4342L11.1006 34.4319L14.0535 31.8072C14.3006 31.5881 14.5492 31.4722 14.7726 31.4722C15.0996 31.4722 15.3441 31.7205 15.4328 31.9514C15.5278 32.1979 15.4707 32.418 15.2641 32.6048L14.7494 33.0689L14.748 33.0702C14.7455 33.0724 14.7431 33.0746 14.7405 33.0769C14.7221 33.0936 14.7031 33.1108 14.6843 33.1277L11.9946 35.5531ZM14.3815 37.6481C14.2484 37.7657 14.1216 37.8227 13.994 37.8227C13.7279 37.8227 13.4186 37.5726 13.2897 37.2532C13.1477 36.9013 13.3162 36.7389 13.3695 36.6874C13.4038 36.6546 13.4449 36.6152 13.4877 36.5693L13.4885 36.5686L13.4975 36.5606C13.6661 36.41 15.1509 35.0684 15.8604 34.4274L15.9132 34.3798C16.1537 34.1687 16.3972 34.0572 16.6179 34.0572C16.9659 34.0572 17.225 34.3236 17.3184 34.5709C17.4114 34.8169 17.3556 35.0322 17.1535 35.2102L16.9716 35.3701C16.9703 35.3713 16.9689 35.3723 16.9676 35.3735L16.9663 35.3748L14.3815 37.6481ZM16.9941 39.54C16.982 39.5508 16.9706 39.5622 16.9589 39.5733L16.7532 39.7589C16.5704 39.924 16.3873 39.969 16.177 39.9C15.9111 39.8128 15.6789 39.5577 15.6245 39.2935C15.5772 39.0638 15.6692 38.8509 15.9026 38.645L16.1951 38.3895C16.2025 38.3831 16.2089 38.376 16.216 38.3694L18.1318 36.6845C18.5909 36.2787 19.0456 36.238 19.3482 36.5763C19.3908 36.624 19.7517 37.053 19.3111 37.451L18.1345 38.5127C18.1219 38.5239 18.1091 38.5338 18.0966 38.5452C18.0922 38.5493 18.0885 38.554 18.0842 38.558L17.0075 39.5295C17.0032 39.5332 16.9983 39.5361 16.9941 39.54ZM18.1289 41.5083C18.0365 41.4058 17.8583 41.1399 18.1506 40.8592L19.3244 39.8001C19.4132 39.7241 19.4988 39.6638 19.5789 39.6225C19.5825 39.6206 19.5863 39.6186 19.5899 39.6168C20.0631 39.3641 20.3194 39.6586 20.3869 39.7549C20.4735 39.8786 20.5792 40.1217 20.3135 40.3604L19.5094 41.0832C19.5063 41.0859 19.5034 41.0887 19.5003 41.0914L19.1517 41.4047C18.5788 41.9189 18.2239 41.6142 18.1289 41.5083ZM32.0188 36.8785C31.9649 37.1005 31.8065 37.2606 31.5841 37.3176C31.2154 37.412 30.7487 37.2072 30.3213 36.7688C30.2893 36.7333 30.2564 36.6984 30.2221 36.6646L26.9135 33.394C26.5691 33.0538 26.0141 33.057 25.6739 33.4013C25.3336 33.7455 25.3367 34.3005 25.681 34.6408L28.9843 37.906C28.9898 37.9119 28.9954 37.9176 29.0008 37.9234C29.1328 38.0592 29.2062 38.2405 29.207 38.4368C29.2078 38.6441 29.1292 38.8373 28.9856 38.9811C28.844 39.123 28.6322 39.2039 28.4033 39.2039C28.4001 39.2039 28.3969 39.2039 28.3937 39.2038C28.191 39.2019 28.006 39.134 27.8759 39.0155C27.821 38.9446 27.7613 38.8759 27.6956 38.8099L25.2768 36.3882C24.9347 36.0458 24.3797 36.0454 24.0372 36.3874C23.6947 36.7295 23.6944 37.2844 24.0364 37.6269L26.3303 39.9236C26.3579 39.9641 26.3886 40.0031 26.4238 40.0395L26.5215 40.1402C26.6472 40.3797 26.5693 40.7831 26.3285 41.0311C25.957 41.4137 25.4342 41.0764 25.0617 40.7266L24.0258 39.7515C23.6734 39.4196 23.1185 39.4364 22.7868 39.7888C22.455 40.1414 22.4717 40.6961 22.8242 41.0279L23.6155 41.7727C23.6174 41.7745 23.6189 41.7765 23.6209 41.7783C23.639 41.7952 23.6662 41.8207 23.6675 41.9091C23.6709 42.1145 23.5353 42.3962 23.3377 42.594C23.0493 42.8826 22.5698 42.8723 22.2465 42.5706L21.3791 41.7598L21.4851 41.6644C22.3452 40.8921 22.484 39.6934 21.8227 38.7493C21.6075 38.442 21.3379 38.2034 21.0356 38.0377C21.4618 37.1971 21.3426 36.1765 20.6547 35.4076C20.2666 34.9737 19.7184 34.6774 19.1065 34.6118C19.089 34.3919 19.0409 34.1702 18.9584 33.9517C18.6606 33.1634 17.9987 32.5831 17.2198 32.3821C17.2522 32.0329 17.2039 31.6724 17.0691 31.3216C16.7001 30.3632 15.7774 29.7191 14.7727 29.7191C14.1139 29.7191 13.463 29.9877 12.8897 30.4962L10.6518 32.4854L10.1599 31.8117L16.8322 23.2656L19.8828 23.7322L19.4213 24.0316C16.9494 25.6354 16.7684 27.5006 17.4235 28.7114C17.9477 29.6807 18.9939 30.2347 20.1044 30.2347C20.5616 30.2346 21.0299 30.1407 21.4769 29.9432C21.4888 29.9378 21.5005 29.9324 21.512 29.9267L23.823 28.7808L25.157 29.9956C25.1584 29.9967 25.1597 29.9976 25.1609 29.9988C25.1622 30 25.1633 30.0012 25.1646 30.0024L31.3308 35.4863C31.8591 35.956 32.1164 36.4765 32.0188 36.8785ZM31.9451 33.6868L26.3334 28.6959L24.5603 27.0815C24.2933 26.8383 23.9043 26.7837 23.5808 26.9443L20.7521 28.3469C19.9836 28.6774 19.2277 28.3629 18.9652 27.8776C18.6045 27.2108 19.1448 26.3006 20.3753 25.5023L23.1294 23.7152C24.6226 22.7445 26.189 22.6696 28.3318 22.9183L34.5364 30.8684C33.8817 32.0442 33.534 32.4175 31.9451 33.6868ZM42.6807 26.7924C42.6552 26.9897 42.5538 27.165 42.3958 27.2854L37.7177 30.8472C37.5497 30.9758 37.3721 31.0028 37.2526 31.0028C37.0067 31.0027 36.781 30.8944 36.6339 30.7064L29.4932 21.5569C29.3708 21.4003 29.3174 21.2058 29.3427 21.0088C29.3682 20.8109 29.4699 20.6348 29.6292 20.5134L34.3017 16.9516C34.4713 16.8231 34.6498 16.7961 34.7698 16.7961C35.0159 16.7961 35.2411 16.9039 35.3883 17.093L42.5302 26.2409C42.6529 26.3987 42.7065 26.5944 42.6807 26.7924Z" fill="white"/>
<path d="M17.4361 17.8629C18.8123 18.6055 20.3668 18.9979 21.9317 18.9979C27.1486 18.9979 31.3931 14.7488 31.3931 9.52597C31.3931 5.88084 29.265 2.51937 25.9723 0.96241C24.7039 0.361375 23.3444 0.0566406 21.9317 0.0566406C16.7159 0.0566406 12.4727 4.30458 12.4727 9.52597C12.4727 13.0085 14.374 16.2027 17.4361 17.8629ZM21.9317 1.8096C23.0827 1.8096 24.1896 2.05758 25.2223 2.54675C27.9059 3.81567 29.64 6.55526 29.64 9.52597C29.64 13.7823 26.182 17.245 21.9318 17.245C20.6565 17.245 19.3899 16.9251 18.2702 16.321C15.7754 14.9683 14.2257 12.3646 14.2257 9.52597C14.2257 5.27119 17.6825 1.8096 21.9317 1.8096Z" fill="white"/>
<path d="M4.72044 22.4745C4.88185 22.6033 5.07489 22.6659 5.26663 22.6659C5.52409 22.6659 5.77919 22.5529 5.95224 22.336L5.96215 22.3236C6.2641 21.9452 6.20213 21.3937 5.82377 21.0918C5.44542 20.79 4.89384 20.8517 4.59198 21.2302L4.58207 21.2427C4.28011 21.621 4.34208 22.1725 4.72044 22.4745Z" fill="white"/>
</g>
</g>
</g>
</g>
<defs>
<clipPath id="clip0_566_3061">
<rect width="45.0235" height="45.0235" fill="white" transform="translate(0.207031 0.0566406)"/>
</clipPath>
<clipPath id="clip1_566_3061">
<rect width="45.0235" height="45.0235" fill="white" transform="translate(0.207031 0.0566406)"/>
</clipPath>
<clipPath id="clip2_566_3061">
<rect width="45.0235" height="45.0235" fill="white" transform="translate(0.207031 0.0566406)"/>
</clipPath>
</defs>
</svg>
