<svg width="46" height="51" viewBox="0 0 46 51" fill="none" xmlns="http://www.w3.org/2000/svg">
<g clip-path="url(#clip0_566_3127)">
<g clip-path="url(#clip1_566_3127)">
<g clip-path="url(#clip2_566_3127)">
<mask id="mask0_566_3127" style="mask-type:luminance" maskUnits="userSpaceOnUse" x="1" y="0" width="45" height="45">
<path d="M45.5108 0.0566406H1.0957V44.4717H45.5108V0.0566406Z" fill="white"/>
</mask>
<g mask="url(#mask0_566_3127)">
<path d="M9.93555 10.668V22.567C12.1867 21.8166 17.7182 21.6666 21.8346 27.0694C22.7994 29.1062 24.3431 33.8229 22.7994 36.3957L27.3017 38.9684V19.6727L9.93555 10.668Z" fill="white"/>
<path d="M45.0607 9.66223L27.7626 0.163635C27.5026 0.0209757 27.1875 0.0209757 26.9276 0.163635L20.4077 3.74369C20.2701 3.77995 20.1416 3.84908 20.0353 3.94836L9.62982 9.66223C9.35235 9.81435 9.17984 10.1058 9.17984 10.4226V21.9107C7.42457 22.4596 5.81598 23.4277 4.4785 24.7655C0.99231 28.2514 0.103481 33.5681 2.26676 37.9953C2.47685 38.4257 2.99633 38.6043 3.42668 38.3938C3.85737 38.1834 4.03561 37.6639 3.82552 37.2336C1.98754 33.4719 2.74286 28.9545 5.70518 25.9922C7.55771 24.1397 10.0206 23.1194 12.6403 23.1194C15.26 23.1194 17.7228 24.1397 19.5754 25.9922C21.4276 27.8444 22.4479 30.3073 22.4479 32.927C22.4479 35.5467 21.4276 38.0096 19.5751 39.8621C16.6128 42.8244 12.0954 43.5797 8.33372 41.7418C7.90336 41.5313 7.38386 41.7099 7.17379 42.1402C6.96336 42.571 7.14163 43.0904 7.57231 43.3005C9.18492 44.0887 10.9152 44.4716 12.6328 44.4716C15.6294 44.4713 18.5859 43.3049 20.8021 41.0888C21.8183 40.0725 22.6214 38.9001 23.1897 37.6256L26.9276 39.6781C27.0578 39.7496 27.2014 39.7852 27.3451 39.7852C27.4888 39.7852 27.6328 39.7496 27.7626 39.6781L45.0607 30.1799C45.3382 30.0274 45.5107 29.7359 45.5107 29.4194V23.3908C45.5107 22.9117 45.1224 22.5233 44.6432 22.5233C44.1641 22.5233 43.7757 22.9117 43.7757 23.3908V28.9061L28.2153 37.4504V20.4329L33.3507 17.6129V22.0831C33.3507 22.3902 33.5127 22.6741 33.7767 22.83C33.9129 22.9103 34.0654 22.9506 34.2182 22.9506C34.3619 22.9506 34.5059 22.915 34.6364 22.8432L38.3431 20.8029C38.6204 20.6504 38.7922 20.3594 38.7922 20.0432V14.6248L43.7757 11.8885V16.4513C43.7757 16.9304 44.1641 17.3188 44.6432 17.3188C45.1224 17.3188 45.5107 16.9304 45.5107 16.4513V10.4226C45.5107 10.1061 45.3382 9.81435 45.0607 9.66223ZM27.3451 1.91351L42.8409 10.4226L37.9528 13.1067L22.4571 4.59762L27.3451 1.91351ZM27.3451 18.9314L11.8494 10.4226L16.9167 7.63991L32.4128 16.1487L27.3451 18.9314ZM34.2148 15.1592L18.7191 6.65042L20.6546 5.58743L36.1507 14.0962L34.2148 15.1592ZM20.8021 24.7655C18.6218 22.5853 15.7232 21.3847 12.6403 21.3847C12.0571 21.3847 11.4811 21.4278 10.9148 21.5121V11.8885L26.4807 20.436V37.4535L23.779 35.9699C24.045 34.9906 24.1826 33.9693 24.1826 32.927C24.1826 29.8441 22.982 26.9454 20.8021 24.7655ZM37.0575 19.5305L35.0857 20.6159V16.6604L37.0575 15.5777V19.5305Z" fill="white"/>
<path d="M44.6429 19.0488C44.4148 19.0488 44.1908 19.1417 44.0296 19.303C43.8683 19.4643 43.7754 19.688 43.7754 19.9163C43.7754 20.1444 43.8683 20.368 44.0296 20.5293C44.1908 20.691 44.4148 20.7835 44.6429 20.7835C44.8709 20.7835 45.0949 20.691 45.2562 20.5293C45.4175 20.368 45.5104 20.1444 45.5104 19.9163C45.5104 19.688 45.4175 19.4643 45.2562 19.303C45.0949 19.1417 44.8709 19.0488 44.6429 19.0488Z" fill="white"/>
<path d="M9.72264 33.7932C9.9446 33.7932 10.1669 33.7085 10.336 33.5394C10.6748 33.2005 10.6748 32.6512 10.336 32.3124L9.73518 31.7112H14.8621C16.1057 31.7112 17.1175 32.723 17.1175 33.9667C17.1175 35.2103 16.1057 36.2221 14.8621 36.2221H11.8242C11.3451 36.2221 10.9567 36.6104 10.9567 37.0896C10.9567 37.5684 11.3451 37.9568 11.8242 37.9568H14.8621C17.0624 37.9568 18.8526 36.1669 18.8526 33.9667C18.8526 31.7664 17.0624 29.9766 14.8621 29.9766H9.73518L10.336 29.3754C10.6748 29.0366 10.6748 28.4873 10.336 28.1485C9.99741 27.8099 9.44812 27.8099 9.10929 28.1485L7.02733 30.2304C6.68881 30.5692 6.68881 31.1185 7.02733 31.4574L9.10929 33.539C9.27871 33.7085 9.50067 33.7932 9.72264 33.7932Z" fill="white"/>
<path d="M5.09263 41.3439C4.84594 41.3439 4.60094 41.2389 4.42982 41.0352L4.42813 41.0332C4.11976 40.6665 4.16721 40.1196 4.53385 39.8112C4.9005 39.5025 5.44776 39.55 5.75612 39.9166C6.06414 40.2836 6.01772 40.8315 5.65107 41.1399C5.48808 41.2768 5.28985 41.3439 5.09263 41.3439Z" fill="white"/>
</g>
</g>
</g>
</g>
<defs>
<clipPath id="clip0_566_3127">
<rect width="45.0235" height="45.0235" fill="white" transform="translate(0.609375 0.0566406)"/>
</clipPath>
<clipPath id="clip1_566_3127">
<rect width="45.0235" height="45.0235" fill="white" transform="translate(0.609375 0.0566406)"/>
</clipPath>
<clipPath id="clip2_566_3127">
<rect width="45.0235" height="45.0235" fill="white" transform="translate(0.609375 0.0566406)"/>
</clipPath>
</defs>
</svg>
