<svg width="46" height="46" viewBox="0 0 46 46" fill="none" xmlns="http://www.w3.org/2000/svg">
<g clip-path="url(#clip0_566_3041)">
<g clip-path="url(#clip1_566_3041)">
<g clip-path="url(#clip2_566_3041)">
<mask id="mask0_566_3041" style="mask-type:luminance" maskUnits="userSpaceOnUse" x="0" y="0" width="46" height="45">
<path d="M45.0684 0.0566406H0.566406V44.5586H45.0684V0.0566406Z" fill="white"/>
</mask>
<g mask="url(#mask0_566_3041)">
<path d="M28.867 3.27344H22.4351L14.7168 10.9917L18.5759 13.2429L22.4351 9.38376L30.475 17.4237L33.3694 20.9612L37.5501 21.6044L39.4797 18.0669V5.84621L36.2637 3.27344H28.867Z" fill="white" fill-opacity="0.3"/>
<path d="M42.1131 9.31191H40.3731L40.3748 6.20118C40.3758 4.11278 38.6779 2.41279 36.5891 2.41176L23.383 2.4043H23.3813C22.6296 2.4043 21.9228 2.69697 21.391 3.22866L1.67563 22.944C0.960253 23.6595 0.566406 24.6104 0.566406 25.6222C0.566406 26.634 0.960253 27.585 1.67563 28.3004L14.4702 41.095C15.2087 41.8334 16.1787 42.2025 17.1484 42.2025C18.1184 42.2025 19.0884 41.8334 19.8269 41.095L32.2398 28.682C32.5794 28.3425 32.5794 27.7921 32.2398 27.453C31.9003 27.1134 31.3499 27.1134 31.0104 27.453L18.5975 39.8659C17.7986 40.6648 16.4985 40.6648 15.6996 39.8659L2.90504 27.0713C2.51799 26.6843 2.30476 26.1695 2.30476 25.6222C2.30476 25.0749 2.51799 24.5602 2.90504 24.1731L22.6201 4.45807C22.8235 4.2547 23.0938 4.14265 23.3813 4.14265H23.382L36.5881 4.15013C37.718 4.15046 38.6371 5.07057 38.6364 6.2005L38.6324 13.484H34.7173C34.3802 13.484 34.0749 13.3461 33.8542 13.124C34.2179 12.9682 34.5588 12.7431 34.8552 12.4467C36.1043 11.1972 36.1043 9.16488 34.8552 7.9158C33.6057 6.66633 31.5734 6.66633 30.3239 7.9158C29.0748 9.16488 29.0748 11.1972 30.3239 12.4467C30.787 12.9098 31.3581 13.2008 31.9567 13.3207C32.3821 14.4312 33.4587 15.2223 34.7173 15.2223H38.6314L38.629 19.3889C38.629 19.6765 38.5169 19.9465 38.3136 20.1494L35.9274 22.5359C35.5878 22.8755 35.5878 23.4259 35.9274 23.7654C36.2666 24.1046 36.8169 24.1046 37.1565 23.7654L39.5429 21.3789C40.074 20.8475 40.367 20.1413 40.3673 19.39L40.3697 15.2223H42.1131C43.7425 15.2223 45.0684 13.8968 45.0684 12.2671C45.0684 10.6377 43.7425 9.31191 42.1131 9.31191ZM31.5533 9.14487C31.8392 8.85898 32.2144 8.71638 32.5899 8.71638C32.965 8.71638 33.3402 8.8593 33.6261 9.14487C33.7164 9.2355 33.7911 9.33565 33.8529 9.44126C32.8988 9.73359 32.1492 10.4972 31.8752 11.4594C31.7601 11.3952 31.6511 11.3154 31.5533 11.2176C30.9819 10.6459 30.9819 9.71629 31.5533 9.14487ZM42.1131 13.484H40.3707L40.3721 11.0503H42.1131C42.7841 11.0503 43.33 11.5962 43.33 12.2671C43.33 12.938 42.7841 13.484 42.1131 13.484Z" fill="white"/>
<path d="M14.5965 24.3339C14.7034 24.7185 15.0528 24.9701 15.4331 24.9701C15.5105 24.9701 15.5889 24.96 15.6667 24.9382L24.5894 22.4546C25.0517 22.3259 25.3223 21.8465 25.1937 21.3841C25.065 20.922 24.5859 20.6514 24.1232 20.7801L15.2005 23.2634C14.7384 23.3924 14.4678 23.8714 14.5965 24.3339Z" fill="white"/>
<path d="M18.5241 25.4799C18.0399 25.9641 17.7734 26.6074 17.7734 27.2923C17.7734 27.9767 18.0399 28.6201 18.5241 29.1043C19.0239 29.6038 19.6799 29.8536 20.3361 29.8536C20.9924 29.8536 21.6487 29.6038 22.1485 29.1043C23.1477 28.1051 23.1477 26.4791 22.1485 25.4799C21.1493 24.4807 19.5233 24.4807 18.5241 25.4799ZM20.9191 27.8749C20.5976 28.1964 20.0747 28.1964 19.7532 27.8749C19.5973 27.7194 19.5118 27.5123 19.5118 27.2919C19.5118 27.0719 19.5977 26.8648 19.7532 26.7089C19.9141 26.5483 20.1253 26.4679 20.3361 26.4679C20.5473 26.4679 20.7585 26.5483 20.9191 26.7089C21.2406 27.0305 21.2406 27.5537 20.9191 27.8749Z" fill="white"/>
<path d="M22.5789 20.3067C23.5781 19.3072 23.5781 17.6815 22.5789 16.6823C22.0947 16.1982 21.451 15.9316 20.7665 15.9316C20.082 15.9316 19.4383 16.1982 18.9545 16.6823C17.9553 17.6815 17.9553 19.3072 18.9545 20.3067C19.4542 20.8061 20.1102 21.056 20.7665 21.056C21.4228 21.056 22.0791 20.8061 22.5789 20.3067ZM20.1836 17.9114C20.3394 17.7555 20.5465 17.67 20.7665 17.67C20.9868 17.67 21.1939 17.7555 21.3495 17.9114C21.671 18.2329 21.671 18.7558 21.3495 19.0773C21.0283 19.3988 20.5051 19.3988 20.1836 19.0773C19.8623 18.7558 19.8623 18.2329 20.1836 17.9114Z" fill="white"/>
<path d="M9.21154 22.5378C8.87206 22.1983 8.32168 22.1983 7.98214 22.5378L5.51245 25.0075C5.34948 25.1705 5.25781 25.3915 5.25781 25.622C5.25781 25.8526 5.34948 26.0736 5.51245 26.2366L16.5344 37.2585C16.7038 37.4279 16.9266 37.5128 17.1489 37.5128C17.3713 37.5128 17.5937 37.4279 17.7635 37.2585L34.2425 20.7791C34.5821 20.4395 34.5821 19.8892 34.2425 19.5497L23.221 8.52808C23.058 8.36509 22.8369 8.27344 22.6064 8.27344C22.3759 8.27344 22.1548 8.36509 21.9919 8.52808L12.8991 17.6208C12.5596 17.9604 12.5596 18.5107 12.8991 18.8502C13.2383 19.1894 13.7887 19.1894 14.1282 18.8502L22.6064 10.372L32.3989 20.1645L17.1489 35.4145L7.35638 25.622L9.21154 23.7669C9.55076 23.4274 9.55108 22.8773 9.21154 22.5378Z" fill="white"/>
<path d="M34.0841 24.7402C33.8552 24.7402 33.6311 24.8332 33.4695 24.9949C33.3079 25.1565 33.2148 25.3809 33.2148 25.6094C33.2148 25.8379 33.3079 26.0623 33.4695 26.224C33.6311 26.3856 33.8552 26.4786 34.0841 26.4786C34.3125 26.4786 34.5366 26.3856 34.6986 26.224C34.8602 26.0623 34.9532 25.8379 34.9532 25.6094C34.9532 25.3809 34.8602 25.1565 34.6986 24.9949C34.5366 24.8332 34.3125 24.7402 34.0841 24.7402Z" fill="white"/>
<path d="M11.6689 21.3079C11.8315 21.1464 11.9239 20.9229 11.9239 20.6934C11.9239 20.4649 11.8315 20.2415 11.6689 20.0789C11.5073 19.9173 11.2839 19.8242 11.0547 19.8242C10.8258 19.8242 10.6018 19.9173 10.4402 20.0789C10.2782 20.2405 10.1855 20.4649 10.1855 20.6934C10.1855 20.9229 10.2782 21.1464 10.4402 21.3079C10.6025 21.4706 10.8258 21.5626 11.0547 21.5626C11.2839 21.5626 11.5073 21.4706 11.6689 21.3079Z" fill="white"/>
</g>
</g>
</g>
</g>
<defs>
<clipPath id="clip0_566_3041">
<rect width="45.0235" height="45.0235" fill="white" transform="translate(0.568359 0.0566406)"/>
</clipPath>
<clipPath id="clip1_566_3041">
<rect width="45.0235" height="45.0235" fill="white" transform="translate(0.568359 0.0566406)"/>
</clipPath>
<clipPath id="clip2_566_3041">
<rect width="45.0235" height="45.0235" fill="white" transform="translate(0.568359 0.0566406)"/>
</clipPath>
</defs>
</svg>
