<svg width="46" height="46" viewBox="0 0 46 46" fill="none" xmlns="http://www.w3.org/2000/svg">
<g clip-path="url(#clip0_566_3084)">
<g clip-path="url(#clip1_566_3084)">
<g clip-path="url(#clip2_566_3084)">
<mask id="mask0_566_3084" style="mask-type:luminance" maskUnits="userSpaceOnUse" x="1" y="0" width="45" height="45">
<path d="M45.5898 0.0566406H1.08789V44.5586H45.5898V0.0566406Z" fill="white"/>
</mask>
<g mask="url(#mask0_566_3084)">
<path d="M31.0755 43.151C37.4696 43.151 42.653 37.9676 42.653 31.5736C42.653 25.1795 37.4696 19.9961 31.0755 19.9961C24.6815 19.9961 19.498 25.1795 19.498 31.5736C19.498 37.9676 24.6815 43.151 31.0755 43.151Z" fill="white" fill-opacity="0.3"/>
<path d="M33.4174 19.3211V10.8993C33.4174 10.6582 33.3061 10.4355 33.1486 10.2593L23.7065 0.344216C23.5302 0.158837 23.2796 0.0566406 23.0294 0.0566406H8.05921C5.29547 0.0566406 3.08789 2.31039 3.08789 5.07445V33.3822C3.08789 36.1462 5.29547 38.363 8.05921 38.363H19.8759C22.111 42.073 26.1737 44.5586 30.8018 44.5586C37.8323 44.5586 43.5736 38.8451 43.5736 31.8054C43.5832 25.656 39.168 20.5177 33.4174 19.3211ZM23.957 3.31233L30.2919 9.9809H26.1829C24.9586 9.9809 23.957 8.97013 23.957 7.74581V3.31233ZM8.05921 36.5078C6.3249 36.5078 4.94304 35.1165 4.94304 33.3822V5.07445C4.94304 3.33066 6.3249 1.91179 8.05921 1.91179H22.1018V7.74581C22.1018 9.99956 23.9291 11.8361 26.1829 11.8361H31.5623V19.0798C31.2842 19.0706 31.0615 19.0428 30.8205 19.0428C27.5834 19.0428 24.6062 20.2857 22.3616 22.2336H10.5822C10.0719 22.2336 9.65458 22.6509 9.65458 23.1608C9.65458 23.6711 10.0719 24.0884 10.5822 24.0884H20.6364C19.9778 25.016 19.4305 25.9436 19.004 26.9638H10.5822C10.0719 26.9638 9.65458 27.3811 9.65458 27.8914C9.65458 28.4013 10.0719 28.819 10.5822 28.819H18.401C18.1692 29.7466 18.0486 30.776 18.0486 31.8054C18.0486 33.4748 18.3732 35.126 18.9575 36.5173H8.05921V36.5078ZM30.8113 42.713C24.8011 42.713 19.913 37.8248 19.913 31.8146C19.913 25.8044 24.7915 20.9163 30.8113 20.9163C36.8307 20.9163 41.7093 25.8044 41.7093 31.8146C41.7093 37.8248 36.8215 42.713 30.8113 42.713Z" fill="white"/>
<path d="M10.5838 19.443H19.9794C20.4897 19.443 20.907 19.0254 20.907 18.5155C20.907 18.0052 20.4897 17.5879 19.9794 17.5879H10.5838C10.0735 17.5879 9.65625 18.0052 9.65625 18.5155C9.65625 19.0254 10.0735 19.443 10.5838 19.443Z" fill="white"/>
<path d="M30.5044 26.0926C30.5787 26.1109 30.6528 26.1204 30.7271 26.1204C30.8198 26.1204 30.9033 26.1109 30.9868 26.0831C32.2111 26.1853 33.1666 27.2056 33.1666 28.4485C33.1666 28.9585 33.5838 29.3758 34.0938 29.3758C34.6041 29.3758 35.0214 28.9585 35.0214 28.4485C35.0214 26.408 33.5747 24.7012 31.6547 24.3023V23.7088C31.6547 23.1985 31.2371 22.7812 30.7271 22.7812C30.2168 22.7812 29.7995 23.1985 29.7995 23.7088V24.3396C27.9444 24.7848 26.5625 26.4637 26.5625 28.4485C26.5625 30.7858 28.4638 32.678 30.7919 32.678C32.0998 32.678 33.1666 33.7445 33.1666 35.0523C33.1666 36.3601 32.1089 37.4361 30.7919 37.4361C29.4841 37.4361 28.4177 36.3693 28.4177 35.0615C28.4177 34.5515 28 34.1339 27.4901 34.1339C26.9798 34.1339 26.5625 34.5515 26.5625 35.0615C26.5625 37.0558 27.9444 38.7252 29.7995 39.1704V40.1258C29.7995 40.6361 30.2168 41.0534 30.7271 41.0534C31.2371 41.0534 31.6547 40.6361 31.6547 40.1258V39.1982C33.5747 38.7992 35.0214 37.0928 35.0214 35.0523C35.0214 32.715 33.12 30.8228 30.7919 30.8228C29.4841 30.8228 28.4177 29.7561 28.4177 28.4485C28.4177 27.2426 29.3266 26.2318 30.5044 26.0926Z" fill="white"/>
</g>
</g>
</g>
</g>
<defs>
<clipPath id="clip0_566_3084">
<rect width="45.0235" height="45.0235" fill="white" transform="translate(0.845703 0.0566406)"/>
</clipPath>
<clipPath id="clip1_566_3084">
<rect width="45.0235" height="45.0235" fill="white" transform="translate(0.845703 0.0566406)"/>
</clipPath>
<clipPath id="clip2_566_3084">
<rect width="45.0235" height="45.0235" fill="white" transform="translate(0.845703 0.0566406)"/>
</clipPath>
</defs>
</svg>
