<svg width="46" height="51" viewBox="0 0 46 51" fill="none" xmlns="http://www.w3.org/2000/svg">
<g clip-path="url(#clip0_566_3101)">
<g clip-path="url(#clip1_566_3101)">
<g clip-path="url(#clip2_566_3101)">
<mask id="mask0_566_3101" style="mask-type:luminance" maskUnits="userSpaceOnUse" x="1" y="0" width="45" height="45">
<path d="M45.8418 0.0566406H1.33984V44.5586H45.8418V0.0566406Z" fill="white"/>
</mask>
<g mask="url(#mask0_566_3101)">
<path d="M34.0036 42.0383C33.5529 42.0383 33.1824 42.3812 33.1387 42.8204H26.5979L25.566 36.6067L26.7129 35.4598C26.8759 35.2968 26.9675 35.0757 26.9675 34.8452C26.9675 34.6147 26.8759 34.3937 26.7129 34.2306L25.6981 33.2158H27.4322C29.3353 33.2158 31.1063 34.1604 32.1693 35.7426C32.4369 36.1411 32.977 36.247 33.3754 35.9794C33.7738 35.7117 33.8798 35.1717 33.6121 34.7731C32.2366 32.7257 29.9516 31.4976 27.4907 31.4783C28.3327 30.5458 28.8463 29.3114 28.8463 27.9592V26.6844C28.8463 23.7858 26.4882 21.4277 23.5896 21.4277C20.6911 21.4277 18.333 23.7858 18.333 26.6844V27.9592C18.333 29.3118 18.8468 30.5463 19.689 31.4789C15.6131 31.5104 12.3066 34.8347 12.3066 38.9179V43.6895C12.3066 44.1695 12.6958 44.5587 13.1759 44.5587H34.0034C34.4835 44.5587 34.8727 44.1695 34.8727 43.6895V42.9075C34.8728 42.4275 34.4836 42.0383 34.0036 42.0383ZM23.5998 36.1146L22.3304 34.8452L23.5998 33.5759L24.8693 34.8452L23.5998 36.1146ZM23.1499 38.0865C23.2879 38.1701 23.4436 38.2129 23.5997 38.2129C23.7558 38.2129 23.9117 38.1702 24.0495 38.0865L24.8357 42.8204H22.3637L23.1499 38.0865ZM20.0716 26.6844C20.0716 24.7444 21.6498 23.1661 23.5898 23.1661C25.5298 23.1661 27.1081 24.7443 27.1081 26.6844V27.9592C27.1081 29.8991 25.5298 31.4774 23.5898 31.4774C21.6498 31.4774 20.0716 29.8992 20.0716 27.9592V26.6844ZM14.0452 38.9179C14.0452 35.7737 16.6032 33.2158 19.7473 33.2158H21.5013L20.4865 34.2306C20.3235 34.3937 20.2319 34.6147 20.2319 34.8452C20.2319 35.0757 20.3235 35.2968 20.4865 35.4598L21.6334 36.6067L20.6016 42.8204H14.0451L14.0452 38.9179Z" fill="white"/>
<path d="M18.9844 1.02148C19.2417 1.02148 25.0947 1.23588 27.9891 1.34308V10.6694L18.9844 10.3478V1.02148Z" fill="white"/>
<path d="M39.5668 1.34375L35.0645 9.70525H44.7123L40.21 1.66535L39.5668 1.34375Z" fill="white"/>
<path d="M18.9844 1.02148C19.2417 1.02148 25.0947 1.23588 27.9891 1.34308V10.6694L18.9844 10.3478V1.02148Z" stroke="white" stroke-width="0.643192" stroke-linecap="round" stroke-linejoin="round"/>
<path d="M39.5668 1.34375L35.0645 9.70525H44.7123L40.21 1.66535L39.5668 1.34375Z" stroke="white" stroke-width="0.643192" stroke-linecap="round" stroke-linejoin="round"/>
<path d="M12.4553 5.61434C12.4553 2.54979 9.96207 0.0566406 6.89763 0.0566406C3.83317 0.0566406 1.33984 2.54988 1.33984 5.61434C1.33984 8.6788 3.83308 11.1721 6.89755 11.1721C9.96201 11.1721 12.4553 8.67887 12.4553 5.61434ZM3.0782 5.61434C3.0782 3.50841 4.79152 1.795 6.89755 1.795C9.00359 1.795 10.7169 3.50841 10.7169 5.61434C10.7169 7.72025 9.00359 9.43371 6.89755 9.43371C4.79152 9.43371 3.0782 7.72038 3.0782 5.61434Z" fill="white"/>
<path d="M18.9023 11.1721H28.2795C28.7595 11.1721 29.1487 10.7829 29.1487 10.3029V0.925817C29.1487 0.445859 28.7595 0.0566406 28.2795 0.0566406H18.9023C18.4223 0.0566406 18.0332 0.445859 18.0332 0.925817V10.3029C18.0332 10.7829 18.4223 11.1721 18.9023 11.1721ZM19.7716 1.795H27.4103V9.43379H19.7716V1.795Z" fill="white"/>
<path d="M45.7247 9.52347L40.7094 0.836933C40.5542 0.568009 40.2673 0.402344 39.9567 0.402344C39.6461 0.402344 39.3592 0.568009 39.204 0.836933L34.1887 9.52347C34.0334 9.79246 34.0334 10.1238 34.1887 10.3927C34.344 10.6616 34.6309 10.8273 34.9414 10.8273H44.972C45.2825 10.8273 45.5694 10.6616 45.7247 10.3927C45.88 10.1238 45.88 9.79246 45.7247 9.52347ZM36.4469 9.08893L39.9566 3.00988L43.4664 9.08893H36.4469Z" fill="white"/>
<path d="M23.5917 19.7215C24.0717 19.7215 24.4609 19.3322 24.4609 18.8522V16.3722L24.4961 16.4214C24.6658 16.6585 24.9327 16.7848 25.2036 16.7848C25.3787 16.7848 25.5555 16.7321 25.7088 16.6224C26.0992 16.343 26.1891 15.8001 25.9098 15.4098L24.2986 13.1583C24.1354 12.9302 23.8722 12.7949 23.5918 12.7949C23.3114 12.7949 23.0482 12.9302 22.8849 13.1583L21.2737 15.4098C20.9944 15.8001 21.0844 16.343 21.4747 16.6224C21.8651 16.9017 22.4079 16.8119 22.6874 16.4214L22.7225 16.3722V18.8522C22.7225 19.3323 23.1117 19.7215 23.5917 19.7215Z" fill="white"/>
<path d="M16.4342 26.7609C16.4342 26.2809 16.0451 25.8917 15.5651 25.8917H7.77139V16.3722L7.80663 16.4214C7.97637 16.6585 8.24317 16.7848 8.51421 16.7848C8.68922 16.7848 8.86603 16.7321 9.01937 16.6224C9.40973 16.343 9.49964 15.8001 9.2203 15.4098L7.60911 13.1583C7.44587 12.9302 7.1827 12.7949 6.90231 12.7949C6.62191 12.7949 6.35872 12.9302 6.19549 13.1583L4.5843 15.4098C4.30494 15.8001 4.3949 16.343 4.78525 16.6224C5.17551 16.9017 5.71849 16.8118 5.99793 16.4214L6.03304 16.3722V26.7609C6.03304 27.2409 6.42218 27.6301 6.90222 27.6301H15.5651C16.045 27.6301 16.4342 27.241 16.4342 26.7609Z" fill="white"/>
<path d="M40.9849 13.1583C40.8217 12.9302 40.5585 12.7949 40.2781 12.7949C39.9978 12.7949 39.7346 12.9302 39.5713 13.1583L37.9601 15.4098C37.6808 15.8001 37.7707 16.343 38.1611 16.6224C38.5514 16.9017 39.0944 16.8119 39.3737 16.4214L39.4089 16.3723V25.8918H31.6153C31.1352 25.8918 30.7461 26.2811 30.7461 26.761C30.7461 27.241 31.1352 27.6301 31.6153 27.6301H40.2781C40.7582 27.6301 41.1473 27.241 41.1473 26.761V16.3723L41.1825 16.4214C41.3523 16.6586 41.6191 16.7849 41.8901 16.7849C42.0652 16.7849 42.2419 16.7322 42.3953 16.6224C42.7856 16.3431 42.8756 15.8002 42.5963 15.4099L40.9849 13.1583Z" fill="white"/>
<path d="M34.004 39.8653C34.484 39.8653 34.8731 39.4762 34.8731 38.9962C34.8731 38.5161 34.484 38.127 34.004 38.127C33.5239 38.127 33.1348 38.5161 33.1348 38.9962C33.1348 39.4762 33.5239 39.8653 34.004 39.8653Z" fill="white"/>
</g>
</g>
</g>
</g>
<defs>
<clipPath id="clip0_566_3101">
<rect width="45.0235" height="45.0235" fill="white" transform="translate(0.974609 0.0566406)"/>
</clipPath>
<clipPath id="clip1_566_3101">
<rect width="45.0235" height="45.0235" fill="white" transform="translate(0.974609 0.0566406)"/>
</clipPath>
<clipPath id="clip2_566_3101">
<rect width="45.0235" height="45.0235" fill="white" transform="translate(0.974609 0.0566406)"/>
</clipPath>
</defs>
</svg>
