<svg width="14" height="14" viewBox="0 0 14 14" fill="none" xmlns="http://www.w3.org/2000/svg">
<path d="M12.3297 12.0286C11.9878 12.0286 11.6604 11.893 11.4187 11.6516C11.1771 11.41 11.0414 11.0823 11.0414 10.7407V4.74167L2.30939 13.4734C1.98409 13.7989 1.50971 13.926 1.06504 13.8068C0.620601 13.6877 0.27327 13.3404 0.154094 12.8959C0.034955 12.4513 0.162006 11.9769 0.487543 11.6516L9.21955 2.91988H3.22012C2.75987 2.91988 2.33459 2.67442 2.1047 2.27579C1.87458 1.87739 1.87458 1.38623 2.1047 0.987845C2.33459 0.589207 2.75987 0.34375 3.22012 0.34375H12.3289C12.6708 0.34375 12.9985 0.479424 13.2399 0.720812C13.4815 0.96244 13.6172 1.29012 13.6172 1.63173V10.7409C13.6172 11.0824 13.4815 11.4101 13.2399 11.6518C12.9985 11.8932 12.6708 12.0288 12.3292 12.0288L12.3297 12.0286Z" fill="white"/>
</svg>
