<svg width="16" height="24" viewBox="0 0 16 24" fill="none" xmlns="http://www.w3.org/2000/svg">
<path d="M1.44211 22.821C2.04953 23.4204 2.8563 23.75 3.71443 23.75C4.57257 23.75 5.38034 23.4201 5.98702 22.821L14.5582 14.3664C15.1656 13.7683 15.5 12.9715 15.5 12.125C15.5 11.2785 15.1656 10.4817 14.5582 9.88332L5.98703 1.42876C5.38067 0.829604 4.57386 0.5 3.71443 0.499999C2.85637 0.499999 2.04852 0.829865 1.44184 1.42903C0.834421 2.02714 0.500001 2.82398 0.500001 3.67071C0.500001 4.51711 0.834414 5.31396 1.44184 5.91239L7.74086 12.1253L1.44313 18.3384C0.835715 18.9365 0.501294 19.7334 0.501294 20.5801C0.500231 21.4265 0.834374 22.2233 1.44204 22.8215L1.44211 22.821Z" fill="url(#paint0_linear_577_9558)"/>
<defs>
<linearGradient id="paint0_linear_577_9558" x1="8" y1="0.5" x2="8" y2="23.75" gradientUnits="userSpaceOnUse">
<stop stop-color="#40CEEC"/>
<stop offset="1" stop-color="#247586"/>
</linearGradient>
</defs>
</svg>
